<svg xmlns="http://www.w3.org/2000/svg" width="499" height="398" viewBox="0 0 499 398" version="1.1">
	<path d="M 237 8.090 C 229.801 9.185, 227.913 9.803, 224.366 12.221 C 220.786 14.661, 221.703 13.051, 182.066 86.500 C 169.120 110.491, 160.535 125.364, 159.760 125.147 C 155.327 123.903, 129.542 120.991, 125 121.221 L 119.500 121.500 118.609 131.809 C 118.013 138.701, 118.058 142.458, 118.745 143.145 C 119.342 143.742, 126.104 144.241, 134.881 144.336 C 143.191 144.426, 149.992 144.680, 149.995 144.900 C 150.001 145.349, 133.933 176.252, 133.337 176.938 C 133.128 177.179, 116.016 177.292, 95.309 177.188 C 55.595 176.990, 47.676 177.589, 31.795 181.990 C 19.093 185.510, 6.490 192.347, 3.947 197.099 C 0.547 203.452, 8.720 210.454, 27.500 217.280 C 41.403 222.333, 58.161 223.742, 101.250 223.481 C 128.425 223.316, 133 223.498, 133 224.740 C 133 225.539, 135.138 230.076, 137.750 234.823 C 140.363 239.569, 143.920 246.469, 145.655 250.156 L 148.810 256.859 133.985 257.179 C 125.832 257.356, 118.787 257.876, 118.331 258.336 C 117.312 259.361, 117.333 273.088, 118.360 278.300 C 118.939 281.238, 119.494 281.984, 120.805 281.590 C 121.737 281.309, 125.875 280.825, 130 280.514 C 138.996 279.835, 151.147 278.250, 156.085 277.112 L 159.671 276.285 164.147 284.892 C 170.650 297.395, 184.814 324.728, 195.813 346 C 217.445 387.833, 218.390 389.414, 223.095 391.636 C 228.948 394.400, 242 396.714, 242 394.987 C 242 394.417, 240.986 393.565, 239.747 393.094 C 238.145 392.485, 236.956 390.544, 235.629 386.369 C 232.959 377.967, 232.381 376.046, 231.006 371 C 230.331 368.525, 228.929 364.302, 227.890 361.617 C 226.850 358.931, 226 356.193, 226 355.534 C 226 354.874, 224.650 350.134, 223 345 C 221.350 339.866, 220 335.516, 220 335.333 C 220 335.150, 221.463 334.993, 223.250 334.985 C 229.555 334.955, 231.046 331.658, 224.965 331.194 C 219.772 330.798, 218.246 329.366, 216.508 323.253 C 215.608 320.089, 213.319 312.594, 211.422 306.597 C 209.525 300.600, 208.118 295.548, 208.296 295.371 C 208.473 295.193, 210.359 294.686, 212.486 294.244 C 214.613 293.803, 216.516 292.952, 216.716 292.353 C 217.073 291.280, 212.763 290.017, 208.625 289.982 C 206.847 289.967, 206.119 288.702, 204.168 282.232 C 202.886 277.979, 201.423 273.466, 200.918 272.203 C 199.405 268.417, 199.794 266, 201.918 266 C 205.132 266, 207 264.880, 207 262.953 C 207 261.558, 206.105 261.045, 203.250 260.806 C 198.348 260.394, 277.498 259.046, 318.465 258.844 L 350.429 258.686 354.421 265.353 C 358.786 272.646, 361.177 273.983, 369.867 273.994 C 373.919 274, 374.187 273.838, 373.592 271.750 C 371.378 263.984, 370.056 258.611, 370.300 258.367 C 370.454 258.212, 397.338 257.715, 430.041 257.263 C 498.100 256.321, 493.918 255.410, 416.882 254.395 L 369.264 253.767 368.165 250.184 C 367.560 248.214, 367.207 246.460, 367.380 246.287 C 367.553 246.113, 395.009 245.583, 428.392 245.108 C 461.776 244.633, 489.296 244.037, 489.549 243.784 C 489.802 243.531, 468.519 243.019, 442.254 242.646 C 415.990 242.273, 388.108 241.681, 380.296 241.331 L 366.092 240.694 365.451 237.775 C 365.098 236.170, 365.098 234.569, 365.451 234.216 C 366.006 233.661, 408.459 232.747, 472 231.923 C 485.151 231.753, 476.189 231.325, 441 230.445 C 413.775 229.764, 385.108 229.160, 377.295 229.103 L 363.091 229 362.425 225.453 C 362.059 223.503, 361.926 221.744, 362.130 221.545 C 362.333 221.345, 390.748 220.851, 425.272 220.447 C 459.797 220.043, 487.895 219.562, 487.712 219.379 C 487.529 219.196, 464.007 218.586, 435.440 218.022 C 355.526 216.446, 361.556 216.789, 361.196 213.792 C 360.966 211.878, 361.454 211.090, 363.196 210.560 C 367.279 209.317, 405.399 208.128, 448 207.914 C 471.958 207.794, 486.964 207.391, 483.500 206.962 C 480.200 206.552, 470.300 206.167, 461.500 206.107 C 452.700 206.046, 432.360 205.700, 416.300 205.338 C 388.759 204.717, 387.155 204.579, 388.050 202.906 C 389.423 200.340, 389.366 200.241, 385.250 198.068 L 381.500 196.088 419 195.909 C 439.625 195.810, 463.700 195.421, 472.500 195.045 L 488.500 194.361 476 194.197 C 457.197 193.950, 361.532 191.754, 361.282 191.564 C 361.163 191.473, 361.576 189.734, 362.200 187.699 L 363.336 184 393.418 183.857 C 409.963 183.778, 439.025 183.441, 458 183.107 L 492.500 182.500 466 181.760 C 451.425 181.353, 422.690 180.721, 402.144 180.354 L 364.789 179.688 365.352 176.220 C 365.661 174.313, 366.060 172.606, 366.238 172.428 C 366.417 172.250, 394.339 171.784, 428.289 171.393 C 462.239 171.002, 489.814 170.480, 489.567 170.234 C 489.088 169.754, 417.848 168.187, 386.720 167.972 L 367.939 167.841 368.602 164.171 C 368.967 162.152, 369.374 160.369, 369.508 160.208 C 369.641 160.048, 396.840 159.527, 429.950 159.050 C 463.060 158.573, 490.416 157.917, 490.742 157.592 C 491.067 157.266, 481.021 156.989, 468.417 156.976 C 443.721 156.950, 371.960 155.294, 371.404 154.737 C 371.217 154.551, 371.576 152.734, 372.200 150.699 L 373.336 147 401.918 146.868 C 417.638 146.795, 444.450 146.457, 461.500 146.118 L 492.500 145.500 455 144.742 C 434.375 144.325, 407.937 143.696, 396.248 143.344 L 374.997 142.705 375.248 138.603 L 375.500 134.500 369.500 134.257 C 363.147 133.999, 361.972 134.532, 358.252 139.352 L 356.052 142.204 332.276 142.096 C 319.199 142.036, 302.650 141.765, 295.500 141.493 C 288.350 141.221, 264.950 140.694, 243.500 140.322 C 222.050 139.949, 205.287 139.466, 206.250 139.249 C 207.938 138.867, 208.778 136.077, 207.250 135.926 C 204.970 135.700, 201.558 134.892, 201.147 134.480 C 200.886 134.219, 202.231 128.942, 204.135 122.753 L 207.598 111.500 212.299 111.195 C 219.259 110.744, 218.378 107, 211.311 107 C 209.293 107, 208.934 106.649, 209.522 105.250 C 209.926 104.287, 211.288 100.125, 212.547 96 C 213.807 91.875, 216.111 84.675, 217.669 80 L 220.500 71.500 225.250 71.195 C 231.379 70.802, 231.832 68.317, 225.945 67.375 C 223.067 66.915, 222.044 66.327, 222.420 65.347 C 222.712 64.588, 226.899 51.838, 231.725 37.014 C 238.746 15.447, 240.850 10.055, 242.250 10.031 C 244.259 9.995, 244.615 8.413, 242.750 7.810 C 242.063 7.587, 239.475 7.713, 237 8.090 M 245.853 148.750 C 209.489 148.970, 201.110 149.271, 200.688 150.370 C 200.094 151.920, 219.249 152.611, 287.500 153.505 C 309.500 153.794, 332 154.259, 337.500 154.541 L 347.500 155.052 349.759 151.526 L 352.018 148 321.259 148.239 C 304.342 148.371, 270.409 148.601, 245.853 148.750 M 256.738 161.061 C 226.069 161.408, 200.681 161.985, 200.321 162.345 C 199.961 162.705, 199.960 163.293, 200.319 163.652 C 200.677 164.011, 221.340 164.655, 246.235 165.084 C 271.131 165.513, 302.137 166.116, 315.137 166.424 L 338.774 166.985 341.465 163.456 L 344.157 159.928 328.328 160.180 C 319.623 160.319, 287.407 160.715, 256.738 161.061 M 286 173.052 C 259.875 173.416, 229.838 173.778, 219.250 173.857 C 202.869 173.979, 200 174.224, 200 175.500 C 200 176.769, 202.423 177.002, 215.750 177.014 C 224.412 177.021, 253.677 177.480, 280.782 178.033 L 330.063 179.038 332.500 176.269 C 334.941 173.496, 335.656 171.829, 334.250 172.195 C 333.837 172.303, 312.125 172.688, 286 173.052 M 284 223.074 C 281.525 223.486, 261.546 223.854, 239.601 223.893 C 203.577 223.957, 197.709 224.170, 199.083 225.361 C 199.725 225.918, 329.022 228.311, 329.557 227.776 C 329.816 227.517, 329.078 226.097, 327.916 224.621 L 325.804 221.936 307.152 222.131 C 296.894 222.238, 286.475 222.663, 284 223.074 M 248.170 234.750 C 209.448 234.961, 198.928 235.286, 199.251 236.259 C 199.549 237.159, 205.268 237.705, 220.081 238.246 C 238.606 238.923, 337.111 240.732, 337.781 240.407 C 337.936 240.332, 337.261 238.863, 336.281 237.142 L 334.500 234.013 316 234.247 C 305.825 234.375, 275.301 234.602, 248.170 234.750 M 261.738 247.003 C 228.319 247.381, 200.682 247.985, 200.322 248.345 C 199.961 248.705, 199.949 249.283, 200.295 249.628 C 200.886 250.219, 233.355 251.034, 312.355 252.441 L 346.210 253.045 344.302 249.772 L 342.393 246.500 332.447 246.408 C 326.976 246.357, 295.157 246.625, 261.738 247.003" stroke="none" fill="#0e5ada" fill-rule="evenodd"/>
</svg>